<mxfile host="Electron" agent="Mozilla/5.0 (Macintosh; Intel Mac OS X 10_15_7) AppleWebKit/537.36 (KHTML, like Gecko) draw.io/26.1.1 Chrome/132.0.6834.210 Electron/34.3.3 Safari/537.36" version="26.1.1">
  <diagram name="Page-1" id="hUAL2ApWnOoLLRZ7Ey1l">
    <mxGraphModel dx="892" dy="671" grid="1" gridSize="10" guides="1" tooltips="1" connect="1" arrows="1" fold="1" page="1" pageScale="1" pageWidth="850" pageHeight="1100" math="0" shadow="0">
      <root>
        <mxCell id="0" />
        <mxCell id="1" parent="0" />
        <mxCell id="DYHNWB_-6eo7xdSx5hHd-8" style="edgeStyle=orthogonalEdgeStyle;rounded=0;orthogonalLoop=1;jettySize=auto;html=1;exitX=1;exitY=0.5;exitDx=0;exitDy=0;entryX=0;entryY=0.5;entryDx=0;entryDy=0;" edge="1" parent="1" source="DYHNWB_-6eo7xdSx5hHd-1" target="DYHNWB_-6eo7xdSx5hHd-2">
          <mxGeometry relative="1" as="geometry" />
        </mxCell>
        <mxCell id="DYHNWB_-6eo7xdSx5hHd-1" value="Entry" style="rounded=1;whiteSpace=wrap;html=1;fillColor=none;" vertex="1" parent="1">
          <mxGeometry x="30" y="269" width="120" height="60" as="geometry" />
        </mxCell>
        <mxCell id="DYHNWB_-6eo7xdSx5hHd-10" style="edgeStyle=orthogonalEdgeStyle;rounded=0;orthogonalLoop=1;jettySize=auto;html=1;exitX=0.75;exitY=1;exitDx=0;exitDy=0;entryX=0.75;entryY=0;entryDx=0;entryDy=0;" edge="1" parent="1" source="DYHNWB_-6eo7xdSx5hHd-2" target="DYHNWB_-6eo7xdSx5hHd-3">
          <mxGeometry relative="1" as="geometry" />
        </mxCell>
        <mxCell id="DYHNWB_-6eo7xdSx5hHd-2" value="Idle" style="rounded=1;whiteSpace=wrap;html=1;fillColor=none;" vertex="1" parent="1">
          <mxGeometry x="220" y="269" width="120" height="60" as="geometry" />
        </mxCell>
        <mxCell id="DYHNWB_-6eo7xdSx5hHd-9" style="edgeStyle=orthogonalEdgeStyle;rounded=0;orthogonalLoop=1;jettySize=auto;html=1;exitX=0.25;exitY=0;exitDx=0;exitDy=0;entryX=0.25;entryY=1;entryDx=0;entryDy=0;" edge="1" parent="1" source="DYHNWB_-6eo7xdSx5hHd-3" target="DYHNWB_-6eo7xdSx5hHd-2">
          <mxGeometry relative="1" as="geometry" />
        </mxCell>
        <mxCell id="DYHNWB_-6eo7xdSx5hHd-3" value="Walking" style="rounded=1;whiteSpace=wrap;html=1;fillColor=none;" vertex="1" parent="1">
          <mxGeometry x="220" y="389" width="120" height="60" as="geometry" />
        </mxCell>
        <mxCell id="DYHNWB_-6eo7xdSx5hHd-12" style="rounded=0;orthogonalLoop=1;jettySize=auto;html=1;exitX=0.5;exitY=1;exitDx=0;exitDy=0;entryX=1;entryY=0;entryDx=0;entryDy=0;" edge="1" parent="1" source="DYHNWB_-6eo7xdSx5hHd-5" target="DYHNWB_-6eo7xdSx5hHd-2">
          <mxGeometry relative="1" as="geometry" />
        </mxCell>
        <mxCell id="DYHNWB_-6eo7xdSx5hHd-5" value="Walking" style="rounded=1;whiteSpace=wrap;html=1;fillColor=none;" vertex="1" parent="1">
          <mxGeometry x="410" y="30" width="120" height="60" as="geometry" />
        </mxCell>
        <mxCell id="DYHNWB_-6eo7xdSx5hHd-13" style="edgeStyle=orthogonalEdgeStyle;rounded=0;orthogonalLoop=1;jettySize=auto;html=1;exitX=0.5;exitY=1;exitDx=0;exitDy=0;entryX=0.5;entryY=0;entryDx=0;entryDy=0;" edge="1" parent="1" source="DYHNWB_-6eo7xdSx5hHd-6" target="DYHNWB_-6eo7xdSx5hHd-7">
          <mxGeometry relative="1" as="geometry" />
        </mxCell>
        <mxCell id="DYHNWB_-6eo7xdSx5hHd-14" style="edgeStyle=orthogonalEdgeStyle;rounded=0;orthogonalLoop=1;jettySize=auto;html=1;exitX=1;exitY=0.5;exitDx=0;exitDy=0;entryX=0;entryY=0.5;entryDx=0;entryDy=0;" edge="1" parent="1" source="DYHNWB_-6eo7xdSx5hHd-6" target="DYHNWB_-6eo7xdSx5hHd-5">
          <mxGeometry relative="1" as="geometry" />
        </mxCell>
        <mxCell id="DYHNWB_-6eo7xdSx5hHd-6" value="Any State" style="rounded=1;whiteSpace=wrap;html=1;fillColor=none;" vertex="1" parent="1">
          <mxGeometry x="220" y="30" width="120" height="60" as="geometry" />
        </mxCell>
        <mxCell id="DYHNWB_-6eo7xdSx5hHd-11" style="edgeStyle=orthogonalEdgeStyle;rounded=0;orthogonalLoop=1;jettySize=auto;html=1;exitX=0.5;exitY=1;exitDx=0;exitDy=0;entryX=0.5;entryY=0;entryDx=0;entryDy=0;" edge="1" parent="1" source="DYHNWB_-6eo7xdSx5hHd-7" target="DYHNWB_-6eo7xdSx5hHd-2">
          <mxGeometry relative="1" as="geometry" />
        </mxCell>
        <mxCell id="DYHNWB_-6eo7xdSx5hHd-7" value="Jumping" style="rounded=1;whiteSpace=wrap;html=1;fillColor=none;" vertex="1" parent="1">
          <mxGeometry x="220" y="150" width="120" height="60" as="geometry" />
        </mxCell>
        <mxCell id="DYHNWB_-6eo7xdSx5hHd-15" value="Trigger: Jump" style="text;html=1;align=center;verticalAlign=middle;whiteSpace=wrap;rounded=0;" vertex="1" parent="1">
          <mxGeometry x="280" y="100" width="60" height="30" as="geometry" />
        </mxCell>
        <mxCell id="DYHNWB_-6eo7xdSx5hHd-16" value="Grounded = True" style="text;html=1;align=center;verticalAlign=middle;whiteSpace=wrap;rounded=0;" vertex="1" parent="1">
          <mxGeometry x="280" y="220" width="60" height="30" as="geometry" />
        </mxCell>
        <mxCell id="DYHNWB_-6eo7xdSx5hHd-17" value="Trigger: Dies" style="text;html=1;align=center;verticalAlign=middle;whiteSpace=wrap;rounded=0;" vertex="1" parent="1">
          <mxGeometry x="341" y="45" width="60" height="30" as="geometry" />
        </mxCell>
        <mxCell id="DYHNWB_-6eo7xdSx5hHd-18" value="Trigger: Respawns" style="text;html=1;align=center;verticalAlign=middle;whiteSpace=wrap;rounded=0;" vertex="1" parent="1">
          <mxGeometry x="409" y="165" width="60" height="30" as="geometry" />
        </mxCell>
        <mxCell id="DYHNWB_-6eo7xdSx5hHd-19" value="Run = True" style="text;html=1;align=center;verticalAlign=middle;whiteSpace=wrap;rounded=0;" vertex="1" parent="1">
          <mxGeometry x="300" y="340" width="60" height="30" as="geometry" />
        </mxCell>
        <mxCell id="DYHNWB_-6eo7xdSx5hHd-20" value="Run = False" style="text;html=1;align=center;verticalAlign=middle;whiteSpace=wrap;rounded=0;" vertex="1" parent="1">
          <mxGeometry x="199" y="340" width="60" height="30" as="geometry" />
        </mxCell>
      </root>
    </mxGraphModel>
  </diagram>
</mxfile>
